HIERARCHY
ROOT Hips
{
  OFFSET 0 100 0
  CHANNELS 6 Xposition Yposition Zposition Zrotation Xrotation Yrotation
  JOINT LeftUpLeg
  {
    OFFSET 8.91 -6.27 -2.145
    CHANNELS 3 Zrotation Xrotation Yrotation
    JOINT LeftUpLegRoll
    {
      OFFSET 0 -22.7323 0
      CHANNELS 3 Zrotation Xrotation Yrotation
      JOINT LeftLeg
      {
        OFFSET 0 -22.1464 0
        CHANNELS 3 Zrotation Xrotation Yrotation
        JOINT LeftLegRoll
        {
          OFFSET 0 -22.0919 0
          CHANNELS 3 Zrotation Xrotation Yrotation
          JOINT LeftFoot
          {
            OFFSET 0 -18.609 0
            CHANNELS 3 Zrotation Xrotation Yrotation
            JOINT LeftToeBase
            {
              OFFSET 0 -6.26232 12.9547
              CHANNELS 3 Zrotation Xrotation Yrotation
              End Site
              {
                OFFSET 0 0 5.96686
              }
            }
          }
        }
      }
    }
  }
  JOINT RightUpLeg
  {
    OFFSET -8.91 -6.27 -2.145
    CHANNELS 3 Zrotation Xrotation Yrotation
    JOINT RightUpLegRoll
    {
      OFFSET 0 -22.7323 0
      CHANNELS 3 Zrotation Xrotation Yrotation
      JOINT RightLeg
      {
        OFFSET 0 -22.1464 0
        CHANNELS 3 Zrotation Xrotation Yrotation
        JOINT RightLegRoll
        {
          OFFSET 0 -22.0919 0
          CHANNELS 3 Zrotation Xrotation Yrotation
          JOINT RightFoot
          {
            OFFSET 0 -18.609 0
            CHANNELS 3 Zrotation Xrotation Yrotation
            JOINT RightToeBase
            {
              OFFSET 0 -6.26232 12.9547
              CHANNELS 3 Zrotation Xrotation Yrotation
              End Site
              {
                OFFSET 0 0.000942417 5.96686
              }
            }
          }
        }
      }
    }
  }
  JOINT Spine
  {
    OFFSET 0 7.43174 -2.06162
    CHANNELS 3 Zrotation Xrotation Yrotation
    JOINT Spine1
    {
      OFFSET -1.68772e-005 12.1899 -1.41951
      CHANNELS 3 Zrotation Xrotation Yrotation
      JOINT Spine2
      {
        OFFSET 0 11.8846 -1.0903
        CHANNELS 3 Zrotation Xrotation Yrotation
        JOINT Spine3
        {
          OFFSET 1.84329e-005 10.5137 1.04001
          CHANNELS 3 Zrotation Xrotation Yrotation
          JOINT Neck
          {
            OFFSET 0 11.5156 1.94702
            CHANNELS 3 Zrotation Xrotation Yrotation
            JOINT Head
            {
              OFFSET -1.26215e-005 11.0733 1.65432
              CHANNELS 3 Zrotation Xrotation Yrotation
              End Site
              {
                OFFSET 1 0 0
              }
            }
          }
          JOINT LeftShoulder
          {
            OFFSET 7 4.56855 2.0674
            CHANNELS 3 Zrotation Xrotation Yrotation
            JOINT LeftArm
            {
              OFFSET 10.7073 0 0
              CHANNELS 3 Zrotation Xrotation Yrotation
              JOINT LeftArmRoll
              {
                OFFSET 15.2612 0 0
                CHANNELS 3 Zrotation Xrotation Yrotation
                JOINT LeftForeArm
                {
                  OFFSET 12.0443 0 0
                  CHANNELS 3 Zrotation Xrotation Yrotation
                  JOINT LeftForeArmRoll
                  {
                    OFFSET 16.3277 0 0
                    CHANNELS 3 Zrotation Xrotation Yrotation
                    JOINT LeftHand
                    {
                      OFFSET 10.3694 0 0
                      CHANNELS 3 Zrotation Xrotation Yrotation
                      JOINT LeftHandThumb1
                      {
                        OFFSET 4.34876 -0.798502 4.28243
                        CHANNELS 3 Zrotation Xrotation Yrotation
                        JOINT LeftHandThumb2
                        {
                          OFFSET 2.51259 -0.536099 0.707454
                          CHANNELS 3 Zrotation Xrotation Yrotation
                          JOINT LeftHandThumb3
                          {
                            OFFSET 2.54314 0 0
                            CHANNELS 3 Zrotation Xrotation Yrotation
                            JOINT LeftHandThumb4
                            {
                              OFFSET 2.66675 0 0
                              CHANNELS 3 Zrotation Xrotation Yrotation
                              End Site
                              {
                                OFFSET 1 0 0
                              }
                            }
                          }
                        }
                      }
                      JOINT LeftHandIndex1
                      {
                        OFFSET 8.82198 0.199729 3.47167
                        CHANNELS 3 Zrotation Xrotation Yrotation
                        JOINT LeftHandIndex2
                        {
                          OFFSET 4.22532 0 -0.00026266
                          CHANNELS 3 Zrotation Xrotation Yrotation
                          JOINT LeftHandIndex3
                          {
                            OFFSET 2.65394 0 -0.000165163
                            CHANNELS 3 Zrotation Xrotation Yrotation
                            JOINT LeftHandIndex4
                            {
                              OFFSET 1.95822 0 -0.000122167
                              CHANNELS 3 Zrotation Xrotation Yrotation
                              End Site
                              {
                                OFFSET 1 0 0
                              }
                            }
                          }
                        }
                      }
                      JOINT LeftHandMiddle1
                      {
                        OFFSET 8.80988 0.50089 1.30468
                        CHANNELS 3 Zrotation Xrotation Yrotation
                        JOINT LeftHandMiddle2
                        {
                          OFFSET 4.86325 0 0
                          CHANNELS 3 Zrotation Xrotation Yrotation
                          JOINT LeftHandMiddle3
                          {
                            OFFSET 2.76524 0 0
                            CHANNELS 3 Zrotation Xrotation Yrotation
                            JOINT LeftHandMiddle4
                            {
                              OFFSET 2.00563 0 0
                              CHANNELS 3 Zrotation Xrotation Yrotation
                              End Site
                              {
                                OFFSET 1 0 0
                              }
                            }
                          }
                        }
                      }
                      JOINT LeftHandRing1
                      {
                        OFFSET 8.89376 0.37992 -0.793159
                        CHANNELS 3 Zrotation Xrotation Yrotation
                        JOINT LeftHandRing2
                        {
                          OFFSET 4.53776 0 -0.000282138
                          CHANNELS 3 Zrotation Xrotation Yrotation
                          JOINT LeftHandRing3
                          {
                            OFFSET 2.30453 0 -0.000143448
                            CHANNELS 3 Zrotation Xrotation Yrotation
                            JOINT LeftHandRing4
                            {
                              OFFSET 1.92335 0 -0.00012044
                              CHANNELS 3 Zrotation Xrotation Yrotation
                              End Site
                              {
                                OFFSET 1 0 0
                              }
                            }
                          }
                        }
                      }
                      JOINT LeftHandPinky1
                      {
                        OFFSET 8.88227 -0.313027 -2.49036
                        CHANNELS 3 Zrotation Xrotation Yrotation
                        JOINT LeftHandPinky2
                        {
                          OFFSET 3.0441 0 0
                          CHANNELS 3 Zrotation Xrotation Yrotation
                          JOINT LeftHandPinky3
                          {
                            OFFSET 1.9745 0 0
                            CHANNELS 3 Zrotation Xrotation Yrotation
                            JOINT LeftHandPinky4
                            {
                              OFFSET 1.66661 0 0
                              CHANNELS 3 Zrotation Xrotation Yrotation
                              End Site
                              {
                                OFFSET 1 0 0
                              }
                            }
                          }
                        }
                      }
                    }
                  }
                }
              }
            }
          }
          JOINT RightShoulder
          {
            OFFSET -7 4.56855 2.0673
            CHANNELS 3 Zrotation Xrotation Yrotation
            JOINT RightArm
            {
              OFFSET -10.7073 0 0
              CHANNELS 3 Zrotation Xrotation Yrotation
              JOINT RightArmRoll
              {
                OFFSET -15.2612 0 0
                CHANNELS 3 Zrotation Xrotation Yrotation
                JOINT RightForeArm
                {
                  OFFSET -12.0444 0 0
                  CHANNELS 3 Zrotation Xrotation Yrotation
                  JOINT RightForeArmRoll
                  {
                    OFFSET -16.3276 0 0
                    CHANNELS 3 Zrotation Xrotation Yrotation
                    JOINT RightHand
                    {
                      OFFSET -10.3694 0 0
                      CHANNELS 3 Zrotation Xrotation Yrotation
                      JOINT RightHandThumb1
                      {
                        OFFSET -4.34838 -0.798501 4.28282
                        CHANNELS 3 Zrotation Xrotation Yrotation
                        JOINT RightHandThumb2
                        {
                          OFFSET -2.51253 -0.536099 0.707679
                          CHANNELS 3 Zrotation Xrotation Yrotation
                          JOINT RightHandThumb3
                          {
                            OFFSET -2.54159 0 0.0888232
                            CHANNELS 3 Zrotation Xrotation Yrotation
                            JOINT RightHandThumb4
                            {
                              OFFSET -2.66512 0 0.0931403
                              CHANNELS 3 Zrotation Xrotation Yrotation
                              End Site
                              {
                                OFFSET 1 0 0
                              }
                            }
                          }
                        }
                      }
                      JOINT RightHandIndex1
                      {
                        OFFSET -8.82167 0.199732 3.47246
                        CHANNELS 3 Zrotation Xrotation Yrotation
                        JOINT RightHandIndex2
                        {
                          OFFSET -4.22532 0 0.000114599
                          CHANNELS 3 Zrotation Xrotation Yrotation
                          JOINT RightHandIndex3
                          {
                            OFFSET -2.65394 0 7.19639e-005
                            CHANNELS 3 Zrotation Xrotation Yrotation
                            JOINT RightHandIndex4
                            {
                              OFFSET -1.95822 0 5.30975e-005
                              CHANNELS 3 Zrotation Xrotation Yrotation
                              End Site
                              {
                                OFFSET 1 0 0
                              }
                            }
                          }
                        }
                      }
                      JOINT RightHandMiddle1
                      {
                        OFFSET -8.80976 0.500893 1.30547
                        CHANNELS 3 Zrotation Xrotation Yrotation
                        JOINT RightHandMiddle2
                        {
                          OFFSET -4.86325 0 0.000131881
                          CHANNELS 3 Zrotation Xrotation Yrotation
                          JOINT RightHandMiddle3
                          {
                            OFFSET -2.76524 0 7.49839e-005
                            CHANNELS 3 Zrotation Xrotation Yrotation
                            JOINT RightHandMiddle4
                            {
                              OFFSET -2.00563 0 5.4389e-005
                              CHANNELS 3 Zrotation Xrotation Yrotation
                              End Site
                              {
                                OFFSET 1 0 0
                              }
                            }
                          }
                        }
                      }
                      JOINT RightHandRing1
                      {
                        OFFSET -8.89383 0.379922 -0.792364
                        CHANNELS 3 Zrotation Xrotation Yrotation
                        JOINT RightHandRing2
                        {
                          OFFSET -4.53776 0 0.000123052
                          CHANNELS 3 Zrotation Xrotation Yrotation
                          JOINT RightHandRing3
                          {
                            OFFSET -2.30453 0 6.2493e-005
                            CHANNELS 3 Zrotation Xrotation Yrotation
                            JOINT RightHandRing4
                            {
                              OFFSET -1.92335 0 5.2155e-005
                              CHANNELS 3 Zrotation Xrotation Yrotation
                              End Site
                              {
                                OFFSET 1 0 0
                              }
                            }
                          }
                        }
                      }
                      JOINT RightHandPinky1
                      {
                        OFFSET -8.8825 -0.313025 -2.48956
                        CHANNELS 3 Zrotation Xrotation Yrotation
                        JOINT RightHandPinky2
                        {
                          OFFSET -3.0478 0 8.26486e-005
                          CHANNELS 3 Zrotation Xrotation Yrotation
                          JOINT RightHandPinky3
                          {
                            OFFSET -1.9769 0 5.36132e-005
                            CHANNELS 3 Zrotation Xrotation Yrotation
                            JOINT RightHandPinky4
                            {
                              OFFSET -1.66864 0 4.52455e-005
                              CHANNELS 3 Zrotation Xrotation Yrotation
                              End Site
                              {
                                OFFSET 1 0 0
                              }
                            }
                          }
                        }
                      }
                    }
                  }
                }
              }
            }
          }
        }
      }
    }
  }
}
MOTION
Frames:	4
Frame Time:	0.0333333
-34.0144 20.3831 69.0844 107.016 -65.6934 136.199 12.3197 -6.29362 15.8982 9.31836e-017 -8.03204e-016 13.2351 2.36451e-007 39.4409 8.38788 8.42432e-017 -7.64195e-016 12.5815 59.2649 10.4537 -5.95761 -4.29059e-007 -1.04696e-007 -7.84017e-016 9.281 -43.071 12.5251 3.49999e-017 -4.94319e-016 8.10006 -180 71.2347 -176.013 1.91552e-017 -3.66109e-016 5.99011 -2.23813 -7.16708 -0.144659 0.00291259 9.13916e-008 -4.64583e-012 -2.9209 2.61826 -1.05935 -3.63297 3.44593 -1.67399 -3.62223 3.43791 -1.71148 -3.60868 3.43253 -1.74869 -3.54248 8.0157 -3.58797 -2.9548 1.31811 -5.40699 14.7965 0 -0.598583 -37.6881 -27.7249 -68.9395 0 -7.08109 0 1.28909 -0.920154 -125.514 0 2.32215 0 42.2983 6.67373 17.1418 -3.56258 -0.0946381 -5.08691 0.656875 0.0229381 1.99987 1.60345 0 0 0 0 0 -15.1911 -0.524278 0.455458 -15.201 0 0 -15.2029 0 0 0 0 0 -26.6284 -0.896695 2.15989 -26.6448 0 0 -26.6425 0 0 0 0 0 -38.0424 -1.2328 1.76064 -38.0584 0 0 -38.0565 0 0 0 0 0 -45.6338 -1.43005 1.24188 -45.6396 0 0 -45.6557 0 0 0 0 0 -24.1509 -1.32801e-015 -6.17359 45.0613 -45.9472 57.6181 -5.03691e-015 -35.6734 -1.62073e-015 0.120046 0.130445 137.377 -7.47929e-006 -0.325817 -2.70882e-006 -26.4632 6.75626 -28.185 3.56283 -0.0945041 5.08749 -0.655314 0.0228836 -1.99987 -1.5191 0 0 0 0 0 15.1908 -0.524268 -0.455397 15.201 0 0 15.2028 0 0 0 0 0 26.5978 -0.895739 -0.164021 26.5999 0 0 26.5859 0 0 0 0 0 38.0118 -1.23196 0.235162 38.0006 0 0 37.9833 0 0 0 0 0 45.5839 -1.42884 0.756615 45.5405 0 0 45.5544 0 0 0 0 0 
-34.2545 20.1295 69.4608 105.947 -66.9182 134.258 14.3291 -8.38667 17.6982 1.02726e-016 -8.42746e-016 13.8995 4.99573e-007 42.0775 8.77351 9.21315e-017 -7.98718e-016 13.1599 58.789 9.21931 -5.20135 0.63912 -0.25094 0.00279927 6.13156 -40.4338 10.0454 3.56491e-017 -4.98859e-016 8.17496 -180 71.8003 -176.471 1.50206e-017 -3.24293e-016 5.30385 -2.27805 -6.93663 -0.142557 0.00291259 9.13915e-008 -4.64583e-012 -2.94144 2.5096 -0.896975 -3.6472 3.29225 -1.43884 -3.63891 3.28549 -1.47285 -3.62822 3.28107 -1.5067 -2.3289 7.42338 -3.87162 -3.61919 1.52478 -5.10913 15.6517 0 -0.0581269 -36.0014 -29.0445 -65.2632 0 -7.10182 0 1.48077 -1.14982 -127.821 0 2.75762 0 39.6814 6.52814 17.9633 -3.56258 -0.0946381 -5.08691 0.656875 0.0229381 1.99987 1.60345 0 0 0 0 0 -15.1911 -0.524278 0.455458 -15.201 0 0 -15.2029 0 0 0 0 0 -26.6284 -0.896695 2.15989 -26.6448 0 0 -26.6425 0 0 0 0 0 -38.0424 -1.2328 1.76064 -38.0584 0 0 -38.0565 0 0 0 0 0 -45.6338 -1.43005 1.24188 -45.6396 0 0 -45.6557 0 0 0 0 0 -22.7771 -1.31287e-015 -6.65354 41.0703 -48.7472 51.5961 -5.22516e-015 -36.675 -1.73185e-015 0.528801 0.554227 136.344 -7.52104e-006 -1.20882 -2.70938e-006 -25.7065 6.28323 -27.0509 3.56283 -0.0945041 5.08749 -0.655314 0.0228836 -1.99987 -1.5191 0 0 0 0 0 15.1908 -0.524268 -0.455397 15.201 0 0 15.2028 0 0 0 0 0 26.5978 -0.895739 -0.164021 26.5999 0 0 26.5859 0 0 0 0 0 38.0118 -1.23196 0.235162 38.0006 0 0 37.9833 0 0 0 0 0 45.5839 -1.42884 0.756615 45.5405 0 0 45.5544 0 0 0 0 0 
-34.5156 19.9953 69.8697 104.208 -68.1549 131.485 15.729 -9.9484 19.043 1.10842e-016 -8.74891e-016 14.4409 -3.50245e-007 43.2338 9.23787 1.02095e-016 -8.40194e-016 13.8565 59.1888 8.40587 -4.77997 2.88256 -1.11955 0.0563686 2.92325 -37.0077 7.4769 3.48087e-017 -4.92973e-016 8.07786 -180 74.4303 -177.175 9.63528e-018 -2.59832e-016 4.24741 -3.1797 -7.18856 -0.204257 0.00291259 9.13914e-008 -4.64582e-012 -2.92927 2.25527 -0.782387 -3.6719 2.88132 -1.2725 -3.66519 2.87533 -1.30312 -3.65657 2.87144 -1.33369 -1.80458 7.45167 -4.22108 -3.41437 1.42583 -5.51667 15.6416 0 0.608507 -33.4894 -30.4886 -59.5312 0 -6.99992 0 1.49764 -1.28821 -130.692 0 2.90748 0 37.8798 6.41595 18.5527 -3.56258 -0.0946381 -5.08691 0.656875 0.0229381 1.99987 1.60345 0 0 0 0 0 -15.1911 -0.524278 0.455458 -15.201 0 0 -15.2029 0 0 0 0 0 -26.6284 -0.896695 2.15989 -26.6448 0 0 -26.6425 0 0 0 0 0 -38.0424 -1.2328 1.76064 -38.0584 0 0 -38.0565 0 0 0 0 0 -45.6338 -1.43005 1.24188 -45.6396 0 0 -45.6557 0 0 0 0 0 -21.857 -1.29853e-015 -6.91904 36.2928 -51.3906 44.9658 -5.43729e-015 -37.7732 -1.86018e-015 0.875228 0.887568 135.398 -7.55514e-006 -1.92941 -2.71032e-006 -25.0049 5.90263 -26.178 3.56283 -0.0945041 5.08749 -0.655314 0.0228836 -1.99987 -1.5191 0 0 0 0 0 15.1908 -0.524268 -0.455397 15.201 0 0 15.2028 0 0 0 0 0 26.5978 -0.895739 -0.164021 26.5999 0 0 26.5859 0 0 0 0 0 38.0118 -1.23196 0.235162 38.0006 0 0 37.9833 0 0 0 0 0 45.5839 -1.42884 0.756615 45.5405 0 0 45.5544 0 0 0 0 0 
-34.8485 19.8781 70.3255 104.212 -69.0249 130.186 16.5159 -10.2402 19.615 1.12261e-016 -8.80382e-016 14.5336 3.80506e-009 42.987 9.59752 1.10161e-016 -8.72241e-016 14.3963 60.9591 8.5712 -5.0509 4.20887 -1.62738 0.119744 -0.244681 -32.2799 4.76857 3.05105e-017 -4.61677e-016 7.56194 -180 79.1793 -177.63 6.78332e-018 -2.18057e-016 3.56356 -2.62051 -6.82271 -0.160704 0.00291259 9.13913e-008 -4.64582e-012 -2.77994 2.06065 -0.678957 -3.57585 2.55326 -1.11668 -3.57031 2.54789 -1.1446 -3.5632 2.54437 -1.17253 -1.05993 5.48501 -4.51543 -3.72225 4.79269 -5.49549 14.056 0 1.2028 -30.0737 -32.192 -51.5921 0 -7.27113 0 1.14904 -1.09437 -133.598 0 2.32338 0 35.1937 6.05536 18.9361 -3.56258 -0.0946381 -5.08691 0.656875 0.0229381 1.99987 1.60345 0 0 0 0 0 -15.1911 -0.524278 0.455458 -15.201 0 0 -15.2029 0 0 0 0 0 -26.6284 -0.896695 2.15989 -26.6448 0 0 -26.6425 0 0 0 0 0 -38.0424 -1.2328 1.76064 -38.0584 0 0 -38.0565 0 0 0 0 0 -45.6338 -1.43005 1.24188 -45.6396 0 0 -45.6557 0 0 0 0 0 -21.6196 -1.35067e-015 -7.51189 32.0593 -53.0188 39.4757 -5.55342e-015 -38.361 -1.93179e-015 1.11119 1.10973 134.957 -7.57813e-006 -2.41515 -2.71119e-006 -24.3894 5.67293 -25.8252 3.56283 -0.0945041 5.08749 -0.655314 0.0228836 -1.99987 -1.5191 0 0 0 0 0 15.1908 -0.524268 -0.455397 15.201 0 0 15.2028 0 0 0 0 0 26.5978 -0.895739 -0.164021 26.5999 0 0 26.5859 0 0 0 0 0 38.0118 -1.23196 0.235162 38.0006 0 0 37.9833 0 0 0 0 0 45.5839 -1.42884 0.756615 45.5405 0 0 45.5544 0 0 0 0 0 
